<svg width="36" height="39" viewBox="0 0 36 39" fill="none" xmlns="http://www.w3.org/2000/svg">
<path d="M22.6875 28.7266L24.707 19.7891C24.8359 19.1445 24.3633 18.5 23.6758 18.5H6.83203L6.44531 16.6094C6.31641 16.1367 5.88672 15.75 5.41406 15.75H1.03125C0.429688 15.75 0 16.2227 0 16.7812V17.4688C0 18.0703 0.429688 18.5 1.03125 18.5H3.99609L7.04688 33.2812C6.31641 33.7109 5.84375 34.4844 5.84375 35.3438C5.84375 36.6758 6.91797 37.75 8.25 37.75C9.53906 37.75 10.6562 36.6758 10.6562 35.3438C10.6562 34.6992 10.3555 34.0977 9.92578 33.625H18.9062C18.4766 34.0977 18.2188 34.6992 18.2188 35.3438C18.2188 36.6758 19.293 37.75 20.625 37.75C21.9141 37.75 23.0312 36.6758 23.0312 35.3438C23.0312 34.3984 22.4727 33.582 21.6562 33.1953L21.8711 32.1641C22.043 31.5195 21.5273 30.875 20.8828 30.875H9.36719L9.06641 29.5H21.6562C22.1289 29.5 22.5586 29.1992 22.6875 28.7266Z" fill="#BDBDBD"/>
<rect x="16" width="20" height="24" rx="7" fill="#27AE60"/>
</svg>
