<svg width="261" height="64" viewBox="0 0 261 64" fill="none" xmlns="http://www.w3.org/2000/svg">
<path d="M1.65057 16H0.357955L4.09659 5.81818H5.36932L9.10795 16H7.81534L4.77273 7.42898H4.69318L1.65057 16ZM2.12784 12.0227H7.33807V13.1165H2.12784V12.0227ZM20.7166 8.36364L17.8928 16H16.6996L13.8757 8.36364H15.1484L17.2564 14.4489H17.3359L19.4439 8.36364H20.7166ZM22.2653 16V8.36364H23.4386V16H22.2653ZM22.8619 7.09091C22.6332 7.09091 22.436 7.01302 22.2702 6.85724C22.1078 6.70147 22.0266 6.5142 22.0266 6.29545C22.0266 6.0767 22.1078 5.88944 22.2702 5.73366C22.436 5.57789 22.6332 5.5 22.8619 5.5C23.0906 5.5 23.2861 5.57789 23.4485 5.73366C23.6142 5.88944 23.6971 6.0767 23.6971 6.29545C23.6971 6.5142 23.6142 6.70147 23.4485 6.85724C23.2861 7.01302 23.0906 7.09091 22.8619 7.09091ZM28.4711 16.1591C27.8347 16.1591 27.2729 15.9983 26.7857 15.6768C26.2985 15.352 25.9173 14.8946 25.6422 14.3047C25.3671 13.7114 25.2296 13.0104 25.2296 12.2017C25.2296 11.3996 25.3671 10.7036 25.6422 10.1136C25.9173 9.52367 26.3001 9.06794 26.7907 8.74645C27.2812 8.42495 27.848 8.2642 28.4909 8.2642C28.9881 8.2642 29.3809 8.34706 29.6692 8.51278C29.9609 8.67519 30.1829 8.8608 30.3354 9.0696C30.4912 9.27509 30.6122 9.44413 30.6983 9.5767H30.7978V5.81818H31.9711V16H30.8375V14.8267H30.6983C30.6122 14.9659 30.4895 15.1416 30.3304 15.3537C30.1713 15.5625 29.9443 15.7498 29.6493 15.9155C29.3543 16.0779 28.9616 16.1591 28.4711 16.1591ZM28.6301 15.1051C29.1008 15.1051 29.4985 14.9825 29.8233 14.7372C30.1481 14.4886 30.3951 14.1456 30.5641 13.7081C30.7331 13.2673 30.8176 12.7585 30.8176 12.1818C30.8176 11.6117 30.7348 11.1129 30.5691 10.6854C30.4034 10.2545 30.1581 9.91974 29.8333 9.68111C29.5085 9.43916 29.1074 9.31818 28.6301 9.31818C28.133 9.31818 27.7187 9.44579 27.3873 9.70099C27.0591 9.95289 26.8122 10.2959 26.6465 10.7301C26.4841 11.161 26.4029 11.6449 26.4029 12.1818C26.4029 12.7254 26.4857 13.2192 26.6515 13.6634C26.8205 14.1042 27.0691 14.4555 27.3972 14.7173C27.7286 14.9759 28.1396 15.1051 28.6301 15.1051ZM36.53 16.179C36.0461 16.179 35.6069 16.0878 35.2125 15.9055C34.8181 15.7199 34.5049 15.4531 34.2729 15.1051C34.0409 14.7538 33.9249 14.3295 33.9249 13.8324C33.9249 13.3949 34.0111 13.0402 34.1834 12.7685C34.3558 12.4934 34.5861 12.2779 34.8745 12.1222C35.1628 11.9664 35.481 11.8504 35.829 11.7741C36.1803 11.6946 36.5333 11.6316 36.888 11.5852C37.352 11.5256 37.7282 11.4808 38.0165 11.451C38.3082 11.4179 38.5203 11.3632 38.6529 11.2869C38.7888 11.2107 38.8567 11.0781 38.8567 10.8892V10.8494C38.8567 10.3589 38.7225 9.97775 38.454 9.70597C38.1889 9.43419 37.7862 9.2983 37.2459 9.2983C36.6858 9.2983 36.2466 9.42093 35.9284 9.66619C35.6103 9.91146 35.3865 10.1733 35.2573 10.4517L34.1436 10.054C34.3425 9.58996 34.6077 9.22869 34.9391 8.97017C35.2739 8.70833 35.6384 8.52604 36.0328 8.4233C36.4306 8.31723 36.8217 8.2642 37.2061 8.2642C37.4514 8.2642 37.7331 8.29403 38.0513 8.35369C38.3728 8.41004 38.6827 8.5277 38.981 8.70668C39.2826 8.88565 39.5328 9.15578 39.7317 9.51705C39.9306 9.87831 40.03 10.3622 40.03 10.9688V16H38.8567V14.9659H38.7971C38.7175 15.1316 38.5849 15.3089 38.3993 15.4979C38.2137 15.6868 37.9668 15.8475 37.6586 15.9801C37.3503 16.1127 36.9741 16.179 36.53 16.179ZM36.709 15.125C37.173 15.125 37.5641 15.0339 37.8823 14.8516C38.2038 14.6693 38.4457 14.4339 38.6081 14.1456C38.7739 13.8572 38.8567 13.554 38.8567 13.2358V12.1619C38.807 12.2216 38.6976 12.2763 38.5286 12.326C38.3629 12.3724 38.1706 12.4138 37.9519 12.4503C37.7364 12.4834 37.526 12.5133 37.3205 12.5398C37.1183 12.563 36.9542 12.5829 36.8283 12.5994C36.5234 12.6392 36.2383 12.7038 35.9732 12.7933C35.7114 12.8795 35.4992 13.0104 35.3368 13.1861C35.1777 13.3584 35.0982 13.5937 35.0982 13.892C35.0982 14.2997 35.249 14.608 35.5506 14.8168C35.8555 15.0223 36.2417 15.125 36.709 15.125ZM49.3107 16.1591C48.5749 16.1591 47.9402 15.9967 47.4066 15.6719C46.8763 15.3438 46.467 14.8864 46.1786 14.2997C45.8936 13.7098 45.7511 13.0237 45.7511 12.2415C45.7511 11.4593 45.8936 10.7699 46.1786 10.1733C46.467 9.57339 46.868 9.10606 47.3817 8.77131C47.8988 8.43324 48.502 8.2642 49.1914 8.2642C49.5891 8.2642 49.9819 8.33049 50.3697 8.46307C50.7575 8.59564 51.1104 8.81108 51.4286 9.10938C51.7468 9.40436 52.0004 9.79545 52.1893 10.2827C52.3782 10.7699 52.4727 11.3698 52.4727 12.0824V12.5795H46.5863V11.5653H51.2795C51.2795 11.1345 51.1933 10.75 51.021 10.4119C50.8519 10.0739 50.61 9.80705 50.2951 9.61151C49.9835 9.41596 49.6156 9.31818 49.1914 9.31818C48.7241 9.31818 48.3197 9.43419 47.9783 9.66619C47.6403 9.89489 47.3801 10.1932 47.1978 10.5611C47.0155 10.929 46.9244 11.3234 46.9244 11.7443V12.4205C46.9244 12.9972 47.0238 13.486 47.2227 13.8871C47.4248 14.2848 47.7049 14.5881 48.0629 14.7969C48.4208 15.0024 48.8368 15.1051 49.3107 15.1051C49.619 15.1051 49.8974 15.062 50.146 14.9759C50.3978 14.8864 50.6149 14.7538 50.7972 14.5781C50.9795 14.3991 51.1204 14.1771 51.2198 13.9119L52.3533 14.2301C52.234 14.6146 52.0335 14.9527 51.7518 15.2443C51.4701 15.5327 51.122 15.758 50.7077 15.9205C50.2934 16.0795 49.8278 16.1591 49.3107 16.1591ZM48.5948 7.32955L49.8079 5.02273H51.18L49.6289 7.32955H48.5948ZM61.2972 16.1591C60.5813 16.1591 59.9648 15.9901 59.4478 15.652C58.9308 15.3139 58.533 14.8482 58.2546 14.255C57.9762 13.6617 57.837 12.9839 57.837 12.2216C57.837 11.446 57.9795 10.7616 58.2646 10.1683C58.5529 9.57173 58.954 9.10606 59.4677 8.77131C59.9847 8.43324 60.5879 8.2642 61.2773 8.2642C61.8143 8.2642 62.2982 8.36364 62.729 8.5625C63.1599 8.76136 63.5129 9.03977 63.788 9.39773C64.0631 9.75568 64.2338 10.1733 64.3001 10.6506H63.1268C63.0373 10.3026 62.8384 9.99432 62.5302 9.72585C62.2253 9.45407 61.8143 9.31818 61.2972 9.31818C60.8398 9.31818 60.4388 9.4375 60.0941 9.67614C59.7527 9.91146 59.4859 10.2446 59.2937 10.6754C59.1048 11.103 59.0103 11.6051 59.0103 12.1818C59.0103 12.7718 59.1031 13.2855 59.2887 13.723C59.4776 14.1605 59.7428 14.5002 60.0842 14.7422C60.4289 14.9841 60.8332 15.1051 61.2972 15.1051C61.6022 15.1051 61.8789 15.0521 62.1275 14.946C62.3761 14.84 62.5865 14.6875 62.7589 14.4886C62.9312 14.2898 63.0539 14.0511 63.1268 13.7727H64.3001C64.2338 14.2235 64.0697 14.6295 63.8079 14.9908C63.5494 15.3487 63.2063 15.6338 62.7788 15.8459C62.3545 16.0547 61.8607 16.1591 61.2972 16.1591ZM69.1175 16.1591C68.4281 16.1591 67.8233 15.995 67.3029 15.6669C66.7859 15.3388 66.3815 14.8797 66.0898 14.2898C65.8015 13.6998 65.6573 13.0104 65.6573 12.2216C65.6573 11.4261 65.8015 10.7318 66.0898 10.1385C66.3815 9.54522 66.7859 9.08452 67.3029 8.75639C67.8233 8.42827 68.4281 8.2642 69.1175 8.2642C69.8069 8.2642 70.4102 8.42827 70.9272 8.75639C71.4476 9.08452 71.8519 9.54522 72.1403 10.1385C72.4319 10.7318 72.5778 11.4261 72.5778 12.2216C72.5778 13.0104 72.4319 13.6998 72.1403 14.2898C71.8519 14.8797 71.4476 15.3388 70.9272 15.6669C70.4102 15.995 69.8069 16.1591 69.1175 16.1591ZM69.1175 15.1051C69.6412 15.1051 70.0721 14.9709 70.4102 14.7024C70.7482 14.4339 70.9985 14.081 71.1609 13.6435C71.3233 13.206 71.4045 12.732 71.4045 12.2216C71.4045 11.7112 71.3233 11.2356 71.1609 10.7947C70.9985 10.3539 70.7482 9.99763 70.4102 9.72585C70.0721 9.45407 69.6412 9.31818 69.1175 9.31818C68.5939 9.31818 68.163 9.45407 67.8249 9.72585C67.4869 9.99763 67.2366 10.3539 67.0742 10.7947C66.9118 11.2356 66.8306 11.7112 66.8306 12.2216C66.8306 12.732 66.9118 13.206 67.0742 13.6435C67.2366 14.081 67.4869 14.4339 67.8249 14.7024C68.163 14.9709 68.5939 15.1051 69.1175 15.1051ZM74.3688 16V8.36364H75.5023V9.55682H75.6017C75.7608 9.14915 76.0177 8.83262 76.3723 8.60724C76.727 8.37855 77.1529 8.2642 77.65 8.2642C78.1538 8.2642 78.5731 8.37855 78.9078 8.60724C79.2459 8.83262 79.5094 9.14915 79.6983 9.55682H79.7779C79.9734 9.16241 80.2667 8.84919 80.6578 8.61719C81.0489 8.38187 81.5179 8.2642 82.0648 8.2642C82.7476 8.2642 83.306 8.47798 83.7402 8.90554C84.1744 9.32978 84.3915 9.991 84.3915 10.8892V16H83.2182V10.8892C83.2182 10.3258 83.0641 9.92306 82.7559 9.68111C82.4476 9.43916 82.0847 9.31818 81.6671 9.31818C81.1301 9.31818 80.7142 9.48059 80.4192 9.8054C80.1242 10.1269 79.9767 10.5346 79.9767 11.0284V16H78.7836V10.7699C78.7836 10.3357 78.6427 9.98603 78.361 9.72088C78.0792 9.45241 77.7163 9.31818 77.2722 9.31818C76.9673 9.31818 76.6822 9.39938 76.4171 9.56179C76.1552 9.72419 75.9431 9.94957 75.7807 10.2379C75.6216 10.523 75.5421 10.8527 75.5421 11.2273V16H74.3688ZM89.639 16.1591C88.9496 16.1591 88.3448 15.995 87.8244 15.6669C87.3074 15.3388 86.903 14.8797 86.6113 14.2898C86.323 13.6998 86.1788 13.0104 86.1788 12.2216C86.1788 11.4261 86.323 10.7318 86.6113 10.1385C86.903 9.54522 87.3074 9.08452 87.8244 8.75639C88.3448 8.42827 88.9496 8.2642 89.639 8.2642C90.3284 8.2642 90.9316 8.42827 91.4487 8.75639C91.969 9.08452 92.3734 9.54522 92.6618 10.1385C92.9534 10.7318 93.0993 11.4261 93.0993 12.2216C93.0993 13.0104 92.9534 13.6998 92.6618 14.2898C92.3734 14.8797 91.969 15.3388 91.4487 15.6669C90.9316 15.995 90.3284 16.1591 89.639 16.1591ZM89.639 15.1051C90.1627 15.1051 90.5936 14.9709 90.9316 14.7024C91.2697 14.4339 91.5199 14.081 91.6824 13.6435C91.8448 13.206 91.926 12.732 91.926 12.2216C91.926 11.7112 91.8448 11.2356 91.6824 10.7947C91.5199 10.3539 91.2697 9.99763 90.9316 9.72585C90.5936 9.45407 90.1627 9.31818 89.639 9.31818C89.1154 9.31818 88.6845 9.45407 88.3464 9.72585C88.0083 9.99763 87.7581 10.3539 87.5957 10.7947C87.4333 11.2356 87.3521 11.7112 87.3521 12.2216C87.3521 12.732 87.4333 13.206 87.5957 13.6435C87.7581 14.081 88.0083 14.4339 88.3464 14.7024C88.6845 14.9709 89.1154 15.1051 89.639 15.1051ZM103.64 12.8778V8.36364H104.814V16H103.64V14.7074H103.561C103.382 15.0952 103.103 15.425 102.725 15.6967C102.348 15.9652 101.87 16.0994 101.294 16.0994C100.816 16.0994 100.392 15.995 100.021 15.7862C99.6497 15.5741 99.3581 15.2559 99.146 14.8317C98.9338 14.4041 98.8278 13.8655 98.8278 13.2159V8.36364H100.001V13.1364C100.001 13.6932 100.157 14.1373 100.468 14.4688C100.783 14.8002 101.184 14.9659 101.672 14.9659C101.963 14.9659 102.26 14.8913 102.561 14.7422C102.866 14.593 103.122 14.3643 103.327 14.0561C103.536 13.7479 103.64 13.3551 103.64 12.8778ZM106.963 16V8.36364H108.096V9.55682H108.195C108.355 9.14915 108.611 8.83262 108.966 8.60724C109.321 8.37855 109.747 8.2642 110.244 8.2642C110.748 8.2642 111.167 8.37855 111.502 8.60724C111.84 8.83262 112.103 9.14915 112.292 9.55682H112.372C112.567 9.16241 112.86 8.84919 113.252 8.61719C113.643 8.38187 114.112 8.2642 114.659 8.2642C115.341 8.2642 115.9 8.47798 116.334 8.90554C116.768 9.32978 116.985 9.991 116.985 10.8892V16H115.812V10.8892C115.812 10.3258 115.658 9.92306 115.35 9.68111C115.041 9.43916 114.678 9.31818 114.261 9.31818C113.724 9.31818 113.308 9.48059 113.013 9.8054C112.718 10.1269 112.57 10.5346 112.57 11.0284V16H111.377V10.7699C111.377 10.3357 111.236 9.98603 110.955 9.72088C110.673 9.45241 110.31 9.31818 109.866 9.31818C109.561 9.31818 109.276 9.39938 109.011 9.56179C108.749 9.72419 108.537 9.94957 108.374 10.2379C108.215 10.523 108.136 10.8527 108.136 11.2273V16H106.963ZM128.477 10.0739L127.423 10.3722C127.357 10.1965 127.259 10.0258 127.13 9.86009C127.004 9.69105 126.831 9.55185 126.613 9.44247C126.394 9.3331 126.114 9.27841 125.773 9.27841C125.305 9.27841 124.916 9.38613 124.604 9.60156C124.296 9.81368 124.142 10.0838 124.142 10.4119C124.142 10.7036 124.248 10.9339 124.46 11.103C124.672 11.272 125.004 11.4129 125.454 11.5256L126.588 11.804C127.271 11.9697 127.779 12.2232 128.114 12.5646C128.449 12.9027 128.616 13.3385 128.616 13.8722C128.616 14.3097 128.49 14.7008 128.238 15.0455C127.99 15.3902 127.642 15.6619 127.194 15.8608C126.747 16.0597 126.227 16.1591 125.633 16.1591C124.854 16.1591 124.21 15.9901 123.699 15.652C123.189 15.3139 122.866 14.8201 122.73 14.1705L123.844 13.892C123.95 14.303 124.15 14.6113 124.445 14.8168C124.743 15.0223 125.133 15.125 125.613 15.125C126.16 15.125 126.595 15.009 126.916 14.777C127.241 14.5417 127.403 14.2599 127.403 13.9318C127.403 13.6667 127.31 13.4446 127.125 13.2656C126.939 13.0833 126.654 12.9474 126.27 12.858L124.997 12.5597C124.298 12.3939 123.784 12.1371 123.456 11.7891C123.131 11.4377 122.969 10.9986 122.969 10.4716C122.969 10.0407 123.09 9.65956 123.331 9.32812C123.577 8.99669 123.91 8.73651 124.331 8.54758C124.755 8.35866 125.236 8.2642 125.773 8.2642C126.528 8.2642 127.122 8.42992 127.552 8.76136C127.987 9.0928 128.295 9.5303 128.477 10.0739ZM132.63 16.179C132.146 16.179 131.707 16.0878 131.312 15.9055C130.918 15.7199 130.605 15.4531 130.373 15.1051C130.141 14.7538 130.025 14.3295 130.025 13.8324C130.025 13.3949 130.111 13.0402 130.283 12.7685C130.455 12.4934 130.686 12.2779 130.974 12.1222C131.262 11.9664 131.581 11.8504 131.929 11.7741C132.28 11.6946 132.633 11.6316 132.988 11.5852C133.452 11.5256 133.828 11.4808 134.116 11.451C134.408 11.4179 134.62 11.3632 134.752 11.2869C134.888 11.2107 134.956 11.0781 134.956 10.8892V10.8494C134.956 10.3589 134.822 9.97775 134.554 9.70597C134.288 9.43419 133.886 9.2983 133.346 9.2983C132.785 9.2983 132.346 9.42093 132.028 9.66619C131.71 9.91146 131.486 10.1733 131.357 10.4517L130.243 10.054C130.442 9.58996 130.707 9.22869 131.039 8.97017C131.373 8.70833 131.738 8.52604 132.132 8.4233C132.53 8.31723 132.921 8.2642 133.306 8.2642C133.551 8.2642 133.833 8.29403 134.151 8.35369C134.472 8.41004 134.782 8.5277 135.081 8.70668C135.382 8.88565 135.632 9.15578 135.831 9.51705C136.03 9.87831 136.13 10.3622 136.13 10.9688V16H134.956V14.9659H134.897C134.817 15.1316 134.685 15.3089 134.499 15.4979C134.313 15.6868 134.066 15.8475 133.758 15.9801C133.45 16.1127 133.074 16.179 132.63 16.179ZM132.809 15.125C133.273 15.125 133.664 15.0339 133.982 14.8516C134.303 14.6693 134.545 14.4339 134.708 14.1456C134.873 13.8572 134.956 13.554 134.956 13.2358V12.1619C134.907 12.2216 134.797 12.2763 134.628 12.326C134.462 12.3724 134.27 12.4138 134.051 12.4503C133.836 12.4834 133.626 12.5133 133.42 12.5398C133.218 12.563 133.054 12.5829 132.928 12.5994C132.623 12.6392 132.338 12.7038 132.073 12.7933C131.811 12.8795 131.599 13.0104 131.436 13.1861C131.277 13.3584 131.198 13.5937 131.198 13.892C131.198 14.2997 131.349 14.608 131.65 14.8168C131.955 15.0223 132.341 15.125 132.809 15.125ZM139.444 11.4062V16H138.271V8.36364H139.405V9.55682H139.504C139.683 9.16903 139.955 8.85748 140.319 8.62216C140.684 8.38352 141.155 8.2642 141.731 8.2642C142.248 8.2642 142.701 8.37027 143.089 8.58239C143.476 8.79119 143.778 9.10938 143.993 9.53693C144.209 9.96117 144.317 10.4981 144.317 11.1477V16H143.143V11.2273C143.143 10.6274 142.988 10.16 142.676 9.82528C142.364 9.48722 141.937 9.31818 141.393 9.31818C141.019 9.31818 140.684 9.39938 140.389 9.56179C140.097 9.72419 139.867 9.96117 139.698 10.2727C139.529 10.5843 139.444 10.9621 139.444 11.4062ZM149.344 16.1591C148.708 16.1591 148.146 15.9983 147.659 15.6768C147.172 15.352 146.79 14.8946 146.515 14.3047C146.24 13.7114 146.103 13.0104 146.103 12.2017C146.103 11.3996 146.24 10.7036 146.515 10.1136C146.79 9.52367 147.173 9.06794 147.664 8.74645C148.154 8.42495 148.721 8.2642 149.364 8.2642C149.861 8.2642 150.254 8.34706 150.542 8.51278C150.834 8.67519 151.056 8.8608 151.208 9.0696C151.364 9.27509 151.485 9.44413 151.571 9.5767H151.671V5.81818H152.844V16H151.711V14.8267H151.571C151.485 14.9659 151.363 15.1416 151.203 15.3537C151.044 15.5625 150.817 15.7498 150.522 15.9155C150.227 16.0779 149.835 16.1591 149.344 16.1591ZM149.503 15.1051C149.974 15.1051 150.372 14.9825 150.696 14.7372C151.021 14.4886 151.268 14.1456 151.437 13.7081C151.606 13.2673 151.691 12.7585 151.691 12.1818C151.691 11.6117 151.608 11.1129 151.442 10.6854C151.276 10.2545 151.031 9.91974 150.706 9.68111C150.382 9.43916 149.98 9.31818 149.503 9.31818C149.006 9.31818 148.592 9.44579 148.26 9.70099C147.932 9.95289 147.685 10.2959 147.52 10.7301C147.357 11.161 147.276 11.6449 147.276 12.1818C147.276 12.7254 147.359 13.2192 147.525 13.6634C147.694 14.1042 147.942 14.4555 148.27 14.7173C148.602 14.9759 149.013 15.1051 149.503 15.1051ZM159.968 12.8778V8.36364H161.142V16H159.968V14.7074H159.889C159.71 15.0952 159.431 15.425 159.054 15.6967C158.676 15.9652 158.199 16.0994 157.622 16.0994C157.145 16.0994 156.72 15.995 156.349 15.7862C155.978 15.5741 155.686 15.2559 155.474 14.8317C155.262 14.4041 155.156 13.8655 155.156 13.2159V8.36364H156.329V13.1364C156.329 13.6932 156.485 14.1373 156.797 14.4688C157.111 14.8002 157.512 14.9659 158 14.9659C158.291 14.9659 158.588 14.8913 158.89 14.7422C159.194 14.593 159.45 14.3643 159.655 14.0561C159.864 13.7479 159.968 13.3551 159.968 12.8778ZM163.291 16V8.36364H164.464V16H163.291ZM163.35 7.32955L164.563 5.02273H165.936L164.384 7.32955H163.35ZM169.715 16.1591C168.999 16.1591 168.383 15.9901 167.866 15.652C167.349 15.3139 166.951 14.8482 166.673 14.255C166.394 13.6617 166.255 12.9839 166.255 12.2216C166.255 11.446 166.397 10.7616 166.683 10.1683C166.971 9.57173 167.372 9.10606 167.886 8.77131C168.403 8.43324 169.006 8.2642 169.695 8.2642C170.232 8.2642 170.716 8.36364 171.147 8.5625C171.578 8.76136 171.931 9.03977 172.206 9.39773C172.481 9.75568 172.652 10.1733 172.718 10.6506H171.545C171.455 10.3026 171.256 9.99432 170.948 9.72585C170.643 9.45407 170.232 9.31818 169.715 9.31818C169.258 9.31818 168.857 9.4375 168.512 9.67614C168.171 9.91146 167.904 10.2446 167.712 10.6754C167.523 11.103 167.428 11.6051 167.428 12.1818C167.428 12.7718 167.521 13.2855 167.707 13.723C167.896 14.1605 168.161 14.5002 168.502 14.7422C168.847 14.9841 169.251 15.1051 169.715 15.1051C170.02 15.1051 170.297 15.0521 170.545 14.946C170.794 14.84 171.004 14.6875 171.177 14.4886C171.349 14.2898 171.472 14.0511 171.545 13.7727H172.718C172.652 14.2235 172.488 14.6295 172.226 14.9908C171.967 15.3487 171.624 15.6338 171.197 15.8459C170.772 16.0547 170.279 16.1591 169.715 16.1591ZM175.607 11.4062V16H174.433V5.81818H175.607V9.55682H175.706C175.885 9.16241 176.153 8.84919 176.511 8.61719C176.873 8.38187 177.353 8.2642 177.953 8.2642C178.473 8.2642 178.929 8.36861 179.32 8.57741C179.711 8.78291 180.015 9.09943 180.23 9.52699C180.449 9.95123 180.558 10.4915 180.558 11.1477V16H179.385V11.2273C179.385 10.6207 179.228 10.1518 178.913 9.82031C178.601 9.48556 178.169 9.31818 177.615 9.31818C177.231 9.31818 176.886 9.39938 176.581 9.56179C176.279 9.72419 176.041 9.96117 175.865 10.2727C175.693 10.5843 175.607 10.9621 175.607 11.4062ZM185.906 16.1591C185.171 16.1591 184.536 15.9967 184.002 15.6719C183.472 15.3438 183.063 14.8864 182.774 14.2997C182.489 13.7098 182.347 13.0237 182.347 12.2415C182.347 11.4593 182.489 10.7699 182.774 10.1733C183.063 9.57339 183.464 9.10606 183.977 8.77131C184.494 8.43324 185.098 8.2642 185.787 8.2642C186.185 8.2642 186.578 8.33049 186.965 8.46307C187.353 8.59564 187.706 8.81108 188.024 9.10938C188.343 9.40436 188.596 9.79545 188.785 10.2827C188.974 10.7699 189.068 11.3698 189.068 12.0824V12.5795H183.182V11.5653H187.875C187.875 11.1345 187.789 10.75 187.617 10.4119C187.448 10.0739 187.206 9.80705 186.891 9.61151C186.579 9.41596 186.211 9.31818 185.787 9.31818C185.32 9.31818 184.915 9.43419 184.574 9.66619C184.236 9.89489 183.976 10.1932 183.794 10.5611C183.611 10.929 183.52 11.3234 183.52 11.7443V12.4205C183.52 12.9972 183.619 13.486 183.818 13.8871C184.021 14.2848 184.301 14.5881 184.659 14.7969C185.017 15.0024 185.432 15.1051 185.906 15.1051C186.215 15.1051 186.493 15.062 186.742 14.9759C186.994 14.8864 187.211 14.7538 187.393 14.5781C187.575 14.3991 187.716 14.1771 187.816 13.9119L188.949 14.2301C188.83 14.6146 188.629 14.9527 188.347 15.2443C188.066 15.5327 187.718 15.758 187.303 15.9205C186.889 16.0795 186.423 16.1591 185.906 16.1591ZM192.603 14.608L192.524 15.1449C192.467 15.5227 192.381 15.9271 192.265 16.358C192.152 16.7888 192.035 17.1948 191.912 17.576C191.789 17.9571 191.688 18.2604 191.609 18.4858H190.714C190.757 18.2737 190.813 17.9936 190.883 17.6456C190.953 17.2976 191.022 16.9081 191.092 16.4773C191.165 16.0497 191.224 15.6122 191.271 15.1648L191.33 14.608H192.603ZM201.916 16.1591C201.18 16.1591 200.546 15.9967 200.012 15.6719C199.482 15.3438 199.072 14.8864 198.784 14.2997C198.499 13.7098 198.357 13.0237 198.357 12.2415C198.357 11.4593 198.499 10.7699 198.784 10.1733C199.072 9.57339 199.473 9.10606 199.987 8.77131C200.504 8.43324 201.107 8.2642 201.797 8.2642C202.195 8.2642 202.587 8.33049 202.975 8.46307C203.363 8.59564 203.716 8.81108 204.034 9.10938C204.352 9.40436 204.606 9.79545 204.795 10.2827C204.984 10.7699 205.078 11.3698 205.078 12.0824V12.5795H199.192V11.5653H203.885C203.885 11.1345 203.799 10.75 203.626 10.4119C203.457 10.0739 203.215 9.80705 202.901 9.61151C202.589 9.41596 202.221 9.31818 201.797 9.31818C201.33 9.31818 200.925 9.43419 200.584 9.66619C200.246 9.89489 199.986 10.1932 199.803 10.5611C199.621 10.929 199.53 11.3234 199.53 11.7443V12.4205C199.53 12.9972 199.629 13.486 199.828 13.8871C200.03 14.2848 200.31 14.5881 200.668 14.7969C201.026 15.0024 201.442 15.1051 201.916 15.1051C202.224 15.1051 202.503 15.062 202.751 14.9759C203.003 14.8864 203.22 14.7538 203.403 14.5781C203.585 14.3991 203.726 14.1771 203.825 13.9119L204.959 14.2301C204.839 14.6146 204.639 14.9527 204.357 15.2443C204.076 15.5327 203.728 15.758 203.313 15.9205C202.899 16.0795 202.433 16.1591 201.916 16.1591ZM201.2 7.32955L202.413 5.02273H203.786L202.234 7.32955H201.2ZM210.8 18.8636V8.36364H211.934V9.5767H212.073C212.159 9.44413 212.279 9.27509 212.431 9.0696C212.587 8.8608 212.809 8.67519 213.097 8.51278C213.389 8.34706 213.783 8.2642 214.281 8.2642C214.924 8.2642 215.49 8.42495 215.981 8.74645C216.471 9.06794 216.854 9.52367 217.129 10.1136C217.404 10.7036 217.542 11.3996 217.542 12.2017C217.542 13.0104 217.404 13.7114 217.129 14.3047C216.854 14.8946 216.473 15.352 215.986 15.6768C215.499 15.9983 214.937 16.1591 214.3 16.1591C213.81 16.1591 213.417 16.0779 213.122 15.9155C212.827 15.7498 212.6 15.5625 212.441 15.3537C212.282 15.1416 212.159 14.9659 212.073 14.8267H211.974V18.8636H210.8ZM211.954 12.1818C211.954 12.7585 212.038 13.2673 212.207 13.7081C212.376 14.1456 212.623 14.4886 212.948 14.7372C213.273 14.9825 213.671 15.1051 214.141 15.1051C214.632 15.1051 215.041 14.9759 215.369 14.7173C215.701 14.4555 215.949 14.1042 216.115 13.6634C216.284 13.2192 216.369 12.7254 216.369 12.1818C216.369 11.6449 216.286 11.161 216.12 10.7301C215.958 10.2959 215.711 9.95289 215.379 9.70099C215.051 9.44579 214.638 9.31818 214.141 9.31818C213.664 9.31818 213.263 9.43916 212.938 9.68111C212.613 9.91974 212.368 10.2545 212.202 10.6854C212.037 11.1129 211.954 11.6117 211.954 12.1818ZM219.332 16V8.36364H220.465V9.51705H220.545C220.684 9.1392 220.936 8.83262 221.3 8.5973C221.665 8.36198 222.076 8.24432 222.533 8.24432C222.62 8.24432 222.727 8.24597 222.857 8.24929C222.986 8.2526 223.084 8.25758 223.15 8.2642V9.45739C223.11 9.44744 223.019 9.43253 222.876 9.41264C222.737 9.38944 222.59 9.37784 222.434 9.37784C222.063 9.37784 221.731 9.45573 221.44 9.61151C221.151 9.76397 220.923 9.97609 220.754 10.2479C220.588 10.5163 220.505 10.8229 220.505 11.1676V16H219.332ZM227.51 16.1591C226.774 16.1591 226.139 15.9967 225.606 15.6719C225.076 15.3438 224.666 14.8864 224.378 14.2997C224.093 13.7098 223.95 13.0237 223.95 12.2415C223.95 11.4593 224.093 10.7699 224.378 10.1733C224.666 9.57339 225.067 9.10606 225.581 8.77131C226.098 8.43324 226.701 8.2642 227.391 8.2642C227.788 8.2642 228.181 8.33049 228.569 8.46307C228.957 8.59564 229.31 8.81108 229.628 9.10938C229.946 9.40436 230.2 9.79545 230.388 10.2827C230.577 10.7699 230.672 11.3698 230.672 12.0824V12.5795H224.786V11.5653H229.479C229.479 11.1345 229.393 10.75 229.22 10.4119C229.051 10.0739 228.809 9.80705 228.494 9.61151C228.183 9.41596 227.815 9.31818 227.391 9.31818C226.923 9.31818 226.519 9.43419 226.178 9.66619C225.839 9.89489 225.579 10.1932 225.397 10.5611C225.215 10.929 225.124 11.3234 225.124 11.7443V12.4205C225.124 12.9972 225.223 13.486 225.422 13.8871C225.624 14.2848 225.904 14.5881 226.262 14.7969C226.62 15.0024 227.036 15.1051 227.51 15.1051C227.818 15.1051 228.097 15.062 228.345 14.9759C228.597 14.8864 228.814 14.7538 228.996 14.5781C229.179 14.3991 229.32 14.1771 229.419 13.9119L230.553 14.2301C230.433 14.6146 230.233 14.9527 229.951 15.2443C229.669 15.5327 229.321 15.758 228.907 15.9205C228.493 16.0795 228.027 16.1591 227.51 16.1591ZM235.559 16.1591C234.843 16.1591 234.227 15.9901 233.71 15.652C233.192 15.3139 232.795 14.8482 232.516 14.255C232.238 13.6617 232.099 12.9839 232.099 12.2216C232.099 11.446 232.241 10.7616 232.526 10.1683C232.815 9.57173 233.216 9.10606 233.729 8.77131C234.246 8.43324 234.85 8.2642 235.539 8.2642C236.076 8.2642 236.56 8.36364 236.991 8.5625C237.422 8.76136 237.775 9.03977 238.05 9.39773C238.325 9.75568 238.496 10.1733 238.562 10.6506H237.388C237.299 10.3026 237.1 9.99432 236.792 9.72585C236.487 9.45407 236.076 9.31818 235.559 9.31818C235.102 9.31818 234.701 9.4375 234.356 9.67614C234.014 9.91146 233.748 10.2446 233.555 10.6754C233.366 11.103 233.272 11.6051 233.272 12.1818C233.272 12.7718 233.365 13.2855 233.55 13.723C233.739 14.1605 234.004 14.5002 234.346 14.7422C234.691 14.9841 235.095 15.1051 235.559 15.1051C235.864 15.1051 236.141 15.0521 236.389 14.946C236.638 14.84 236.848 14.6875 237.021 14.4886C237.193 14.2898 237.316 14.0511 237.388 13.7727H238.562C238.496 14.2235 238.331 14.6295 238.07 14.9908C237.811 15.3487 237.468 15.6338 237.04 15.8459C236.616 16.0547 236.122 16.1591 235.559 16.1591ZM240.277 16V8.36364H241.45V16H240.277ZM240.874 7.09091C240.645 7.09091 240.448 7.01302 240.282 6.85724C240.12 6.70147 240.038 6.5142 240.038 6.29545C240.038 6.0767 240.12 5.88944 240.282 5.73366C240.448 5.57789 240.645 5.5 240.874 5.5C241.102 5.5 241.298 5.57789 241.46 5.73366C241.626 5.88944 241.709 6.0767 241.709 6.29545C241.709 6.5142 241.626 6.70147 241.46 6.85724C241.298 7.01302 241.102 7.09091 240.874 7.09091ZM249.008 10.0739L247.954 10.3722C247.888 10.1965 247.79 10.0258 247.661 9.86009C247.535 9.69105 247.363 9.55185 247.144 9.44247C246.925 9.3331 246.645 9.27841 246.304 9.27841C245.836 9.27841 245.447 9.38613 245.135 9.60156C244.827 9.81368 244.673 10.0838 244.673 10.4119C244.673 10.7036 244.779 10.9339 244.991 11.103C245.203 11.272 245.535 11.4129 245.986 11.5256L247.119 11.804C247.802 11.9697 248.311 12.2232 248.645 12.5646C248.98 12.9027 249.148 13.3385 249.148 13.8722C249.148 14.3097 249.022 14.7008 248.77 15.0455C248.521 15.3902 248.173 15.6619 247.726 15.8608C247.278 16.0597 246.758 16.1591 246.165 16.1591C245.386 16.1591 244.741 15.9901 244.231 15.652C243.72 15.3139 243.397 14.8201 243.261 14.1705L244.375 13.892C244.481 14.303 244.681 14.6113 244.976 14.8168C245.275 15.0223 245.664 15.125 246.145 15.125C246.692 15.125 247.126 15.009 247.447 14.777C247.772 14.5417 247.934 14.2599 247.934 13.9318C247.934 13.6667 247.842 13.4446 247.656 13.2656C247.47 13.0833 247.185 12.9474 246.801 12.858L245.528 12.5597C244.829 12.3939 244.315 12.1371 243.987 11.7891C243.662 11.4377 243.5 10.9986 243.5 10.4716C243.5 10.0407 243.621 9.65956 243.863 9.32812C244.108 8.99669 244.441 8.73651 244.862 8.54758C245.286 8.35866 245.767 8.2642 246.304 8.2642C247.059 8.2642 247.653 8.42992 248.084 8.76136C248.518 9.0928 248.826 9.5303 249.008 10.0739ZM254.016 16.1591C253.327 16.1591 252.722 15.995 252.201 15.6669C251.684 15.3388 251.28 14.8797 250.988 14.2898C250.7 13.6998 250.556 13.0104 250.556 12.2216C250.556 11.4261 250.7 10.7318 250.988 10.1385C251.28 9.54522 251.684 9.08452 252.201 8.75639C252.722 8.42827 253.327 8.2642 254.016 8.2642C254.705 8.2642 255.309 8.42827 255.826 8.75639C256.346 9.08452 256.75 9.54522 257.039 10.1385C257.33 10.7318 257.476 11.4261 257.476 12.2216C257.476 13.0104 257.33 13.6998 257.039 14.2898C256.75 14.8797 256.346 15.3388 255.826 15.6669C255.309 15.995 254.705 16.1591 254.016 16.1591ZM254.016 15.1051C254.54 15.1051 254.971 14.9709 255.309 14.7024C255.647 14.4339 255.897 14.081 256.059 13.6435C256.222 13.206 256.303 12.732 256.303 12.2216C256.303 11.7112 256.222 11.2356 256.059 10.7947C255.897 10.3539 255.647 9.99763 255.309 9.72585C254.971 9.45407 254.54 9.31818 254.016 9.31818C253.492 9.31818 253.061 9.45407 252.723 9.72585C252.385 9.99763 252.135 10.3539 251.973 10.7947C251.81 11.2356 251.729 11.7112 251.729 12.2216C251.729 12.732 251.81 13.206 251.973 13.6435C252.135 14.081 252.385 14.4339 252.723 14.7024C253.061 14.9709 253.492 15.1051 254.016 15.1051ZM1.07386 38V30.3636H2.20739V31.517H2.28693C2.42614 31.1392 2.67803 30.8326 3.04261 30.5973C3.4072 30.362 3.81818 30.2443 4.27557 30.2443C4.36174 30.2443 4.46946 30.246 4.59872 30.2493C4.72798 30.2526 4.82576 30.2576 4.89205 30.2642V31.4574C4.85227 31.4474 4.76113 31.4325 4.61861 31.4126C4.4794 31.3894 4.33191 31.3778 4.17614 31.3778C3.80492 31.3778 3.47349 31.4557 3.18182 31.6115C2.89347 31.764 2.66477 31.9761 2.49574 32.2479C2.33002 32.5163 2.24716 32.8229 2.24716 33.1676V38H1.07386ZM9.25213 38.1591C8.51634 38.1591 7.88163 37.9967 7.34801 37.6719C6.81771 37.3438 6.40838 36.8864 6.12003 36.2997C5.83499 35.7098 5.69247 35.0237 5.69247 34.2415C5.69247 33.4593 5.83499 32.7699 6.12003 32.1733C6.40838 31.5734 6.80942 31.1061 7.32315 30.7713C7.8402 30.4332 8.44342 30.2642 9.13281 30.2642C9.53054 30.2642 9.9233 30.3305 10.3111 30.4631C10.6989 30.5956 11.0518 30.8111 11.37 31.1094C11.6882 31.4044 11.9418 31.7955 12.1307 32.2827C12.3196 32.7699 12.4141 33.3698 12.4141 34.0824V34.5795H6.5277V33.5653H11.2209C11.2209 33.1345 11.1347 32.75 10.9624 32.4119C10.7933 32.0739 10.5514 31.8071 10.2365 31.6115C9.92495 31.416 9.55706 31.3182 9.13281 31.3182C8.66548 31.3182 8.26113 31.4342 7.91974 31.6662C7.58168 31.8949 7.3215 32.1932 7.1392 32.5611C6.95691 32.929 6.86577 33.3234 6.86577 33.7443V34.4205C6.86577 34.9972 6.9652 35.486 7.16406 35.8871C7.36624 36.2848 7.64631 36.5881 8.00426 36.7969C8.36222 37.0024 8.77817 37.1051 9.25213 37.1051C9.56037 37.1051 9.83878 37.062 10.0874 36.9759C10.3393 36.8864 10.5563 36.7538 10.7386 36.5781C10.9209 36.3991 11.0618 36.1771 11.1612 35.9119L12.2947 36.2301C12.1754 36.6146 11.9749 36.9527 11.6932 37.2443C11.4115 37.5327 11.0634 37.758 10.6491 37.9205C10.2348 38.0795 9.76918 38.1591 9.25213 38.1591ZM17.3011 38.1591C16.5852 38.1591 15.9688 37.9901 15.4517 37.652C14.9347 37.3139 14.5369 36.8482 14.2585 36.255C13.9801 35.6617 13.8409 34.9839 13.8409 34.2216C13.8409 33.446 13.9834 32.7616 14.2685 32.1683C14.5568 31.5717 14.9579 31.1061 15.4716 30.7713C15.9886 30.4332 16.5919 30.2642 17.2812 30.2642C17.8182 30.2642 18.3021 30.3636 18.733 30.5625C19.1638 30.7614 19.5168 31.0398 19.7919 31.3977C20.067 31.7557 20.2377 32.1733 20.304 32.6506H19.1307C19.0412 32.3026 18.8423 31.9943 18.5341 31.7259C18.2292 31.4541 17.8182 31.3182 17.3011 31.3182C16.8438 31.3182 16.4427 31.4375 16.098 31.6761C15.7566 31.9115 15.4898 32.2446 15.2976 32.6754C15.1087 33.103 15.0142 33.6051 15.0142 34.1818C15.0142 34.7718 15.107 35.2855 15.2926 35.723C15.4815 36.1605 15.7467 36.5002 16.0881 36.7422C16.4328 36.9841 16.8371 37.1051 17.3011 37.1051C17.6061 37.1051 17.8828 37.0521 18.1314 36.946C18.38 36.84 18.5904 36.6875 18.7628 36.4886C18.9351 36.2898 19.0578 36.0511 19.1307 35.7727H20.304C20.2377 36.2235 20.0736 36.6295 19.8118 36.9908C19.5533 37.3487 19.2102 37.6338 18.7827 37.8459C18.3584 38.0547 17.8646 38.1591 17.3011 38.1591ZM23.1925 33.4062V38H22.0192V27.8182H23.1925V31.5568H23.2919C23.4709 31.1624 23.7393 30.8492 24.0973 30.6172C24.4586 30.3819 24.9392 30.2642 25.5391 30.2642C26.0594 30.2642 26.5152 30.3686 26.9062 30.5774C27.2973 30.7829 27.6006 31.0994 27.8161 31.527C28.0348 31.9512 28.1442 32.4915 28.1442 33.1477V38H26.9709V33.2273C26.9709 32.6207 26.8134 32.1518 26.4986 31.8203C26.187 31.4856 25.7545 31.3182 25.201 31.3182C24.8165 31.3182 24.4718 31.3994 24.1669 31.5618C23.8653 31.7242 23.6267 31.9612 23.451 32.2727C23.2786 32.5843 23.1925 32.9621 23.1925 33.4062ZM33.4924 38.1591C32.7566 38.1591 32.1219 37.9967 31.5882 37.6719C31.0579 37.3438 30.6486 36.8864 30.3603 36.2997C30.0752 35.7098 29.9327 35.0237 29.9327 34.2415C29.9327 33.4593 30.0752 32.7699 30.3603 32.1733C30.6486 31.5734 31.0497 31.1061 31.5634 30.7713C32.0804 30.4332 32.6837 30.2642 33.373 30.2642C33.7708 30.2642 34.1635 30.3305 34.5513 30.4631C34.9391 30.5956 35.2921 30.8111 35.6103 31.1094C35.9284 31.4044 36.182 31.7955 36.3709 32.2827C36.5598 32.7699 36.6543 33.3698 36.6543 34.0824V34.5795H30.7679V33.5653H35.4611C35.4611 33.1345 35.3749 32.75 35.2026 32.4119C35.0336 32.0739 34.7916 31.8071 34.4767 31.6115C34.1652 31.416 33.7973 31.3182 33.373 31.3182C32.9057 31.3182 32.5014 31.4342 32.16 31.6662C31.8219 31.8949 31.5617 32.1932 31.3794 32.5611C31.1971 32.929 31.106 33.3234 31.106 33.7443V34.4205C31.106 34.9972 31.2054 35.486 31.4043 35.8871C31.6065 36.2848 31.8865 36.5881 32.2445 36.7969C32.6025 37.0024 33.0184 37.1051 33.4924 37.1051C33.8006 37.1051 34.079 37.062 34.3276 36.9759C34.5795 36.8864 34.7966 36.7538 34.9789 36.5781C35.1612 36.3991 35.302 36.1771 35.4015 35.9119L36.535 36.2301C36.4157 36.6146 36.2151 36.9527 35.9334 37.2443C35.6517 37.5327 35.3037 37.758 34.8894 37.9205C34.4751 38.0795 34.0094 38.1591 33.4924 38.1591ZM40.6863 38.179C40.2024 38.179 39.7632 38.0878 39.3688 37.9055C38.9744 37.7199 38.6612 37.4531 38.4292 37.1051C38.1971 36.7538 38.0811 36.3295 38.0811 35.8324C38.0811 35.3949 38.1673 35.0402 38.3397 34.7685C38.512 34.4934 38.7424 34.2779 39.0307 34.1222C39.3191 33.9664 39.6373 33.8504 39.9853 33.7741C40.3366 33.6946 40.6896 33.6316 41.0442 33.5852C41.5082 33.5256 41.8844 33.4808 42.1728 33.451C42.4644 33.4179 42.6766 33.3632 42.8091 33.2869C42.945 33.2107 43.013 33.0781 43.013 32.8892V32.8494C43.013 32.3589 42.8787 31.9777 42.6103 31.706C42.3451 31.4342 41.9424 31.2983 41.4022 31.2983C40.842 31.2983 40.4029 31.4209 40.0847 31.6662C39.7665 31.9115 39.5428 32.1733 39.4135 32.4517L38.2999 32.054C38.4988 31.59 38.7639 31.2287 39.0953 30.9702C39.4301 30.7083 39.7947 30.526 40.1891 30.4233C40.5868 30.3172 40.9779 30.2642 41.3624 30.2642C41.6077 30.2642 41.8894 30.294 42.2076 30.3537C42.5291 30.41 42.839 30.5277 43.1373 30.7067C43.4389 30.8857 43.6891 31.1558 43.888 31.517C44.0868 31.8783 44.1863 32.3622 44.1863 32.9688V38H43.013V36.9659H42.9533C42.8738 37.1316 42.7412 37.3089 42.5556 37.4979C42.37 37.6868 42.123 37.8475 41.8148 37.9801C41.5066 38.1127 41.1304 38.179 40.6863 38.179ZM40.8652 37.125C41.3292 37.125 41.7203 37.0339 42.0385 36.8516C42.36 36.6693 42.602 36.4339 42.7644 36.1456C42.9301 35.8572 43.013 35.554 43.013 35.2358V34.1619C42.9632 34.2216 42.8539 34.2763 42.6848 34.326C42.5191 34.3724 42.3269 34.4138 42.1081 34.4503C41.8927 34.4834 41.6822 34.5133 41.4767 34.5398C41.2746 34.563 41.1105 34.5829 40.9846 34.5994C40.6796 34.6392 40.3946 34.7038 40.1294 34.7933C39.8676 34.8795 39.6555 35.0104 39.4931 35.1861C39.334 35.3584 39.2544 35.5937 39.2544 35.892C39.2544 36.2997 39.4052 36.608 39.7069 36.8168C40.0118 37.0223 40.3979 37.125 40.8652 37.125ZM40.905 29.3295L42.1181 27.0227H43.4902L41.9391 29.3295H40.905ZM50.7028 33.0881V34.1818H46.2482V33.0881H50.7028ZM53.9405 27.8182V38H52.7672V27.8182H53.9405ZM58.3366 38.179C57.8527 38.179 57.4136 38.0878 57.0192 37.9055C56.6248 37.7199 56.3116 37.4531 56.0795 37.1051C55.8475 36.7538 55.7315 36.3295 55.7315 35.8324C55.7315 35.3949 55.8177 35.0402 55.9901 34.7685C56.1624 34.4934 56.3928 34.2779 56.6811 34.1222C56.9695 33.9664 57.2876 33.8504 57.6357 33.7741C57.987 33.6946 58.34 33.6316 58.6946 33.5852C59.1586 33.5256 59.5348 33.4808 59.8232 33.451C60.1148 33.4179 60.3269 33.3632 60.4595 33.2869C60.5954 33.2107 60.6634 33.0781 60.6634 32.8892V32.8494C60.6634 32.3589 60.5291 31.9777 60.2607 31.706C59.9955 31.4342 59.5928 31.2983 59.0526 31.2983C58.4924 31.2983 58.0533 31.4209 57.7351 31.6662C57.4169 31.9115 57.1932 32.1733 57.0639 32.4517L55.9503 32.054C56.1491 31.59 56.4143 31.2287 56.7457 30.9702C57.0805 30.7083 57.4451 30.526 57.8395 30.4233C58.2372 30.3172 58.6283 30.2642 59.0128 30.2642C59.258 30.2642 59.5398 30.294 59.858 30.3537C60.1795 30.41 60.4893 30.5277 60.7876 30.7067C61.0893 30.8857 61.3395 31.1558 61.5384 31.517C61.7372 31.8783 61.8366 32.3622 61.8366 32.9688V38H60.6634V36.9659H60.6037C60.5241 37.1316 60.3916 37.3089 60.206 37.4979C60.0204 37.6868 59.7734 37.8475 59.4652 37.9801C59.157 38.1127 58.7808 38.179 58.3366 38.179ZM58.5156 37.125C58.9796 37.125 59.3707 37.0339 59.6889 36.8516C60.0104 36.6693 60.2524 36.4339 60.4148 36.1456C60.5805 35.8572 60.6634 35.554 60.6634 35.2358V34.1619C60.6136 34.2216 60.5043 34.2763 60.3352 34.326C60.1695 34.3724 59.9773 34.4138 59.7585 34.4503C59.5431 34.4834 59.3326 34.5133 59.1271 34.5398C58.925 34.563 58.7609 34.5829 58.6349 34.5994C58.33 34.6392 58.045 34.7038 57.7798 34.7933C57.518 34.8795 57.3059 35.0104 57.1435 35.1861C56.9844 35.3584 56.9048 35.5937 56.9048 35.892C56.9048 36.2997 57.0556 36.608 57.3572 36.8168C57.6622 37.0223 58.0483 37.125 58.5156 37.125ZM71.0179 38.1591C70.302 38.1591 69.6855 37.9901 69.1685 37.652C68.6515 37.3139 68.2537 36.8482 67.9753 36.255C67.6969 35.6617 67.5577 34.9839 67.5577 34.2216C67.5577 33.446 67.7002 32.7616 67.9853 32.1683C68.2736 31.5717 68.6747 31.1061 69.1884 30.7713C69.7054 30.4332 70.3087 30.2642 70.998 30.2642C71.535 30.2642 72.0189 30.3636 72.4498 30.5625C72.8806 30.7614 73.2336 31.0398 73.5087 31.3977C73.7838 31.7557 73.9545 32.1733 74.0208 32.6506H72.8475C72.758 32.3026 72.5591 31.9943 72.2509 31.7259C71.946 31.4541 71.535 31.3182 71.0179 31.3182C70.5605 31.3182 70.1595 31.4375 69.8148 31.6761C69.4734 31.9115 69.2066 32.2446 69.0144 32.6754C68.8255 33.103 68.731 33.6051 68.731 34.1818C68.731 34.7718 68.8238 35.2855 69.0094 35.723C69.1983 36.1605 69.4635 36.5002 69.8049 36.7422C70.1496 36.9841 70.5539 37.1051 71.0179 37.1051C71.3229 37.1051 71.5996 37.0521 71.8482 36.946C72.0968 36.84 72.3072 36.6875 72.4796 36.4886C72.6519 36.2898 72.7746 36.0511 72.8475 35.7727H74.0208C73.9545 36.2235 73.7904 36.6295 73.5286 36.9908C73.2701 37.3487 72.927 37.6338 72.4995 37.8459C72.0752 38.0547 71.5814 38.1591 71.0179 38.1591ZM78.8382 38.1591C78.1489 38.1591 77.544 37.995 77.0236 37.6669C76.5066 37.3388 76.1022 36.8797 75.8105 36.2898C75.5222 35.6998 75.378 35.0104 75.378 34.2216C75.378 33.4261 75.5222 32.7318 75.8105 32.1385C76.1022 31.5452 76.5066 31.0845 77.0236 30.7564C77.544 30.4283 78.1489 30.2642 78.8382 30.2642C79.5276 30.2642 80.1309 30.4283 80.6479 30.7564C81.1683 31.0845 81.5726 31.5452 81.861 32.1385C82.1526 32.7318 82.2985 33.4261 82.2985 34.2216C82.2985 35.0104 82.1526 35.6998 81.861 36.2898C81.5726 36.8797 81.1683 37.3388 80.6479 37.6669C80.1309 37.995 79.5276 38.1591 78.8382 38.1591ZM78.8382 37.1051C79.3619 37.1051 79.7928 36.9709 80.1309 36.7024C80.4689 36.4339 80.7192 36.081 80.8816 35.6435C81.044 35.206 81.1252 34.732 81.1252 34.2216C81.1252 33.7112 81.044 33.2356 80.8816 32.7947C80.7192 32.3539 80.4689 31.9976 80.1309 31.7259C79.7928 31.4541 79.3619 31.3182 78.8382 31.3182C78.3146 31.3182 77.8837 31.4541 77.5456 31.7259C77.2076 31.9976 76.9573 32.3539 76.7949 32.7947C76.6325 33.2356 76.5513 33.7112 76.5513 34.2216C76.5513 34.732 76.6325 35.206 76.7949 35.6435C76.9573 36.081 77.2076 36.4339 77.5456 36.7024C77.8837 36.9709 78.3146 37.1051 78.8382 37.1051ZM84.0895 38V30.3636H85.223V31.5568H85.3224C85.4815 31.1491 85.7384 30.8326 86.093 30.6072C86.4477 30.3786 86.8736 30.2642 87.3707 30.2642C87.8745 30.2642 88.2938 30.3786 88.6286 30.6072C88.9666 30.8326 89.2301 31.1491 89.419 31.5568H89.4986C89.6941 31.1624 89.9875 30.8492 90.3786 30.6172C90.7697 30.3819 91.2386 30.2642 91.7855 30.2642C92.4683 30.2642 93.0268 30.478 93.4609 30.9055C93.8951 31.3298 94.1122 31.991 94.1122 32.8892V38H92.9389V32.8892C92.9389 32.3258 92.7848 31.9231 92.4766 31.6811C92.1683 31.4392 91.8054 31.3182 91.3878 31.3182C90.8509 31.3182 90.4349 31.4806 90.1399 31.8054C89.8449 32.1269 89.6974 32.5346 89.6974 33.0284V38H88.5043V32.7699C88.5043 32.3357 88.3634 31.986 88.0817 31.7209C87.8 31.4524 87.437 31.3182 86.9929 31.3182C86.688 31.3182 86.4029 31.3994 86.1378 31.5618C85.8759 31.7242 85.6638 31.9496 85.5014 32.2379C85.3423 32.523 85.2628 32.8527 85.2628 33.2273V38H84.0895ZM103.297 38.1591C102.608 38.1591 102.003 37.995 101.483 37.6669C100.966 37.3388 100.561 36.8797 100.27 36.2898C99.9812 35.6998 99.837 35.0104 99.837 34.2216C99.837 33.4261 99.9812 32.7318 100.27 32.1385C100.561 31.5452 100.966 31.0845 101.483 30.7564C102.003 30.4283 102.608 30.2642 103.297 30.2642C103.987 30.2642 104.59 30.4283 105.107 30.7564C105.627 31.0845 106.032 31.5452 106.32 32.1385C106.612 32.7318 106.757 33.4261 106.757 34.2216C106.757 35.0104 106.612 35.6998 106.32 36.2898C106.032 36.8797 105.627 37.3388 105.107 37.6669C104.59 37.995 103.987 38.1591 103.297 38.1591ZM103.297 37.1051C103.821 37.1051 104.252 36.9709 104.59 36.7024C104.928 36.4339 105.178 36.081 105.341 35.6435C105.503 35.206 105.584 34.732 105.584 34.2216C105.584 33.7112 105.503 33.2356 105.341 32.7947C105.178 32.3539 104.928 31.9976 104.59 31.7259C104.252 31.4541 103.821 31.3182 103.297 31.3182C102.774 31.3182 102.343 31.4541 102.005 31.7259C101.667 31.9976 101.416 32.3539 101.254 32.7947C101.092 33.2356 101.01 33.7112 101.01 34.2216C101.01 34.732 101.092 35.206 101.254 35.6435C101.416 36.081 101.667 36.4339 102.005 36.7024C102.343 36.9709 102.774 37.1051 103.297 37.1051ZM113.958 32.0739L112.904 32.3722C112.837 32.1965 112.74 32.0258 112.61 31.8601C112.484 31.6911 112.312 31.5518 112.093 31.4425C111.874 31.3331 111.594 31.2784 111.253 31.2784C110.786 31.2784 110.396 31.3861 110.085 31.6016C109.776 31.8137 109.622 32.0838 109.622 32.4119C109.622 32.7036 109.728 32.9339 109.941 33.103C110.153 33.272 110.484 33.4129 110.935 33.5256L112.068 33.804C112.751 33.9697 113.26 34.2232 113.595 34.5646C113.929 34.9027 114.097 35.3385 114.097 35.8722C114.097 36.3097 113.971 36.7008 113.719 37.0455C113.47 37.3902 113.122 37.6619 112.675 37.8608C112.227 38.0597 111.707 38.1591 111.114 38.1591C110.335 38.1591 109.69 37.9901 109.18 37.652C108.669 37.3139 108.346 36.8201 108.21 36.1705L109.324 35.892C109.43 36.303 109.631 36.6113 109.926 36.8168C110.224 37.0223 110.613 37.125 111.094 37.125C111.641 37.125 112.075 37.009 112.396 36.777C112.721 36.5417 112.884 36.2599 112.884 35.9318C112.884 35.6667 112.791 35.4446 112.605 35.2656C112.42 35.0833 112.135 34.9474 111.75 34.858L110.477 34.5597C109.778 34.3939 109.264 34.1371 108.936 33.7891C108.611 33.4377 108.449 32.9986 108.449 32.4716C108.449 32.0407 108.57 31.6596 108.812 31.3281C109.057 30.9967 109.39 30.7365 109.811 30.5476C110.235 30.3587 110.716 30.2642 111.253 30.2642C112.009 30.2642 112.602 30.4299 113.033 30.7614C113.467 31.0928 113.775 31.5303 113.958 32.0739ZM1.07386 60V52.3636H2.24716V60H1.07386ZM1.67045 51.0909C1.44176 51.0909 1.24455 51.013 1.07884 50.8572C0.91643 50.7015 0.835227 50.5142 0.835227 50.2955C0.835227 50.0767 0.91643 49.8894 1.07884 49.7337C1.24455 49.5779 1.44176 49.5 1.67045 49.5C1.89915 49.5 2.0947 49.5779 2.2571 49.7337C2.42282 49.8894 2.50568 50.0767 2.50568 50.2955C2.50568 50.5142 2.42282 50.7015 2.2571 50.8572C2.0947 51.013 1.89915 51.0909 1.67045 51.0909ZM5.56942 55.4062V60H4.39613V52.3636H5.52965V53.5568H5.62908C5.80806 53.169 6.07984 52.8575 6.44442 52.6222C6.80901 52.3835 7.27965 52.2642 7.85636 52.2642C8.3734 52.2642 8.82582 52.3703 9.2136 52.5824C9.60139 52.7912 9.90299 53.1094 10.1184 53.5369C10.3339 53.9612 10.4416 54.4981 10.4416 55.1477V60H9.26829V55.2273C9.26829 54.6274 9.11251 54.16 8.80096 53.8253C8.48941 53.4872 8.06185 53.3182 7.51829 53.3182C7.14376 53.3182 6.80901 53.3994 6.51403 53.5618C6.22236 53.7242 5.99201 53.9612 5.82298 54.2727C5.65394 54.5843 5.56942 54.9621 5.56942 55.4062ZM15.668 63.0227C15.1012 63.0227 14.614 62.9498 14.2063 62.804C13.7987 62.6615 13.4589 62.4725 13.1871 62.2372C12.9187 62.0052 12.7049 61.7566 12.5458 61.4915L13.4805 60.8352C13.5865 60.9744 13.7208 61.1335 13.8832 61.3125C14.0456 61.4948 14.2676 61.6522 14.5494 61.7848C14.8344 61.9207 15.2073 61.9886 15.668 61.9886C16.2844 61.9886 16.7932 61.8395 17.1942 61.5412C17.5953 61.2429 17.7958 60.7756 17.7958 60.1392V58.5881H17.6964C17.6102 58.7273 17.4876 58.8996 17.3285 59.1051C17.1727 59.3073 16.9473 59.4879 16.6523 59.647C16.3607 59.8028 15.9663 59.8807 15.4691 59.8807C14.8526 59.8807 14.2991 59.7348 13.8086 59.4432C13.3214 59.1515 12.9353 58.7273 12.6502 58.1705C12.3685 57.6136 12.2276 56.9375 12.2276 56.142C12.2276 55.3598 12.3652 54.6787 12.6403 54.0987C12.9154 53.5154 13.2982 53.0646 13.7887 52.7464C14.2792 52.425 14.846 52.2642 15.489 52.2642C15.9862 52.2642 16.3806 52.3471 16.6722 52.5128C16.9672 52.6752 17.1926 52.8608 17.3484 53.0696C17.5075 53.2751 17.6301 53.4441 17.7163 53.5767H17.8356V52.3636H18.9691V60.2188C18.9691 60.875 18.82 61.4086 18.5217 61.8196C18.2267 62.2339 17.829 62.5372 17.3285 62.7294C16.8313 62.925 16.2778 63.0227 15.668 63.0227ZM15.6282 58.8267C16.0988 58.8267 16.4966 58.719 16.8214 58.5036C17.1462 58.2881 17.3931 57.9782 17.5621 57.5739C17.7312 57.1695 17.8157 56.6856 17.8157 56.1222C17.8157 55.572 17.7328 55.0864 17.5671 54.6655C17.4014 54.2446 17.1561 53.9148 16.8313 53.6761C16.5065 53.4375 16.1055 53.3182 15.6282 53.3182C15.131 53.3182 14.7167 53.4441 14.3853 53.696C14.0572 53.9479 13.8103 54.286 13.6445 54.7102C13.4821 55.1345 13.4009 55.6051 13.4009 56.1222C13.4009 56.6525 13.4838 57.1214 13.6495 57.5291C13.8185 57.9335 14.0671 58.2517 14.3952 58.4837C14.7267 58.7124 15.1377 58.8267 15.6282 58.8267ZM21.1168 60V52.3636H22.2504V53.517H22.3299C22.4691 53.1392 22.721 52.8326 23.0856 52.5973C23.4502 52.362 23.8612 52.2443 24.3185 52.2443C24.4047 52.2443 24.5124 52.246 24.6417 52.2493C24.771 52.2526 24.8687 52.2576 24.935 52.2642V53.4574C24.8952 53.4474 24.8041 53.4325 24.6616 53.4126C24.5224 53.3894 24.3749 53.3778 24.2191 53.3778C23.8479 53.3778 23.5165 53.4557 23.2248 53.6115C22.9364 53.764 22.7077 53.9761 22.5387 54.2479C22.373 54.5163 22.2901 54.8229 22.2901 55.1676V60H21.1168ZM29.2951 60.1591C28.5593 60.1591 27.9246 59.9967 27.391 59.6719C26.8607 59.3438 26.4513 58.8864 26.163 58.2997C25.878 57.7098 25.7354 57.0237 25.7354 56.2415C25.7354 55.4593 25.878 54.7699 26.163 54.1733C26.4513 53.5734 26.8524 53.1061 27.3661 52.7713C27.8832 52.4332 28.4864 52.2642 29.1758 52.2642C29.5735 52.2642 29.9663 52.3305 30.354 52.4631C30.7418 52.5956 31.0948 52.8111 31.413 53.1094C31.7312 53.4044 31.9847 53.7955 32.1737 54.2827C32.3626 54.7699 32.457 55.3698 32.457 56.0824V56.5795H26.5707V55.5653H31.2638C31.2638 55.1345 31.1777 54.75 31.0053 54.4119C30.8363 54.0739 30.5943 53.8071 30.2795 53.6115C29.9679 53.416 29.6 53.3182 29.1758 53.3182C28.7085 53.3182 28.3041 53.4342 27.9627 53.6662C27.6246 53.8949 27.3645 54.1932 27.1822 54.5611C26.9999 54.929 26.9087 55.3234 26.9087 55.7443V56.4205C26.9087 56.9972 27.0082 57.486 27.207 57.8871C27.4092 58.2848 27.6893 58.5881 28.0472 58.7969C28.4052 59.0024 28.8211 59.1051 29.2951 59.1051C29.6033 59.1051 29.8817 59.062 30.1303 58.9759C30.3822 58.8864 30.5993 58.7538 30.7816 58.5781C30.9639 58.3991 31.1048 58.1771 31.2042 57.9119L32.3377 58.2301C32.2184 58.6146 32.0179 58.9527 31.7362 59.2443C31.4544 59.5327 31.1064 59.758 30.6921 59.9205C30.2778 60.0795 29.8121 60.1591 29.2951 60.1591ZM37.1254 60.1591C36.489 60.1591 35.9272 59.9983 35.44 59.6768C34.9528 59.352 34.5716 58.8946 34.2965 58.3047C34.0214 57.7114 33.8839 57.0104 33.8839 56.2017C33.8839 55.3996 34.0214 54.7036 34.2965 54.1136C34.5716 53.5237 34.9544 53.0679 35.445 52.7464C35.9355 52.425 36.5022 52.2642 37.1452 52.2642C37.6424 52.2642 38.0352 52.3471 38.3235 52.5128C38.6152 52.6752 38.8372 52.8608 38.9897 53.0696C39.1455 53.2751 39.2665 53.4441 39.3526 53.5767H39.4521V49.8182H40.6254V60H39.4918V58.8267H39.3526C39.2665 58.9659 39.1438 59.1416 38.9847 59.3537C38.8256 59.5625 38.5986 59.7498 38.3036 59.9155C38.0086 60.0779 37.6159 60.1591 37.1254 60.1591ZM37.2844 59.1051C37.7551 59.1051 38.1528 58.9825 38.4776 58.7372C38.8024 58.4886 39.0494 58.1456 39.2184 57.7081C39.3874 57.2673 39.4719 56.7585 39.4719 56.1818C39.4719 55.6117 39.3891 55.1129 39.2234 54.6854C39.0576 54.2545 38.8124 53.9197 38.4876 53.6811C38.1628 53.4392 37.7617 53.3182 37.2844 53.3182C36.7873 53.3182 36.373 53.4458 36.0415 53.701C35.7134 53.9529 35.4665 54.2959 35.3008 54.7301C35.1384 55.161 35.0572 55.6449 35.0572 56.1818C35.0572 56.7254 35.14 57.2192 35.3058 57.6634C35.4748 58.1042 35.7234 58.4555 36.0515 58.7173C36.3829 58.9759 36.7939 59.1051 37.2844 59.1051ZM42.9371 60V52.3636H44.1104V60H42.9371ZM43.5337 51.0909C43.305 51.0909 43.1078 51.013 42.9421 50.8572C42.7797 50.7015 42.6985 50.5142 42.6985 50.2955C42.6985 50.0767 42.7797 49.8894 42.9421 49.7337C43.1078 49.5779 43.305 49.5 43.5337 49.5C43.7624 49.5 43.958 49.5779 44.1204 49.7337C44.2861 49.8894 44.369 50.0767 44.369 50.2955C44.369 50.5142 44.2861 50.7015 44.1204 50.8572C43.958 51.013 43.7624 51.0909 43.5337 51.0909ZM49.4611 60.1591C48.7253 60.1591 48.0906 59.9967 47.557 59.6719C47.0267 59.3438 46.6174 58.8864 46.329 58.2997C46.044 57.7098 45.9015 57.0237 45.9015 56.2415C45.9015 55.4593 46.044 54.7699 46.329 54.1733C46.6174 53.5734 47.0184 53.1061 47.5321 52.7713C48.0492 52.4332 48.6524 52.2642 49.3418 52.2642C49.7395 52.2642 50.1323 52.3305 50.5201 52.4631C50.9078 52.5956 51.2608 52.8111 51.579 53.1094C51.8972 53.4044 52.1507 53.7955 52.3397 54.2827C52.5286 54.7699 52.623 55.3698 52.623 56.0824V56.5795H46.7367V55.5653H51.4299C51.4299 55.1345 51.3437 54.75 51.1713 54.4119C51.0023 54.0739 50.7604 53.8071 50.4455 53.6115C50.1339 53.416 49.766 53.3182 49.3418 53.3182C48.8745 53.3182 48.4701 53.4342 48.1287 53.6662C47.7907 53.8949 47.5305 54.1932 47.3482 54.5611C47.1659 54.929 47.0748 55.3234 47.0748 55.7443V56.4205C47.0748 56.9972 47.1742 57.486 47.373 57.8871C47.5752 58.2848 47.8553 58.5881 48.2132 58.7969C48.5712 59.0024 48.9872 59.1051 49.4611 59.1051C49.7694 59.1051 50.0478 59.062 50.2963 58.9759C50.5482 58.8864 50.7653 58.7538 50.9476 58.5781C51.1299 58.3991 51.2708 58.1771 51.3702 57.9119L52.5037 58.2301C52.3844 58.6146 52.1839 58.9527 51.9022 59.2443C51.6204 59.5327 51.2724 59.758 50.8581 59.9205C50.4438 60.0795 49.9782 60.1591 49.4611 60.1591ZM55.5811 55.4062V60H54.4078V52.3636H55.5414V53.5568H55.6408C55.8198 53.169 56.0916 52.8575 56.4561 52.6222C56.8207 52.3835 57.2914 52.2642 57.8681 52.2642C58.3851 52.2642 58.8375 52.3703 59.2253 52.5824C59.6131 52.7912 59.9147 53.1094 60.1301 53.5369C60.3456 53.9612 60.4533 54.4981 60.4533 55.1477V60H59.28V55.2273C59.28 54.6274 59.1242 54.16 58.8127 53.8253C58.5011 53.4872 58.0736 53.3182 57.53 53.3182C57.1555 53.3182 56.8207 53.3994 56.5257 53.5618C56.2341 53.7242 56.0037 53.9612 55.8347 54.2727C55.6657 54.5843 55.5811 54.9621 55.5811 55.4062ZM65.9183 52.3636V53.358H61.9609V52.3636H65.9183ZM63.1143 50.5341H64.2876V57.8125C64.2876 58.1439 64.3357 58.3925 64.4318 58.5582C64.5313 58.7206 64.6572 58.83 64.8097 58.8864C64.9654 58.9394 65.1295 58.9659 65.3018 58.9659C65.4311 58.9659 65.5372 58.9593 65.62 58.946C65.7029 58.9295 65.7692 58.9162 65.8189 58.9062L66.0575 59.9602C65.978 59.9901 65.867 60.0199 65.7244 60.0497C65.5819 60.0829 65.4013 60.0994 65.1825 60.0994C64.8511 60.0994 64.5263 60.0282 64.2081 59.8857C63.8932 59.7431 63.6314 59.526 63.4226 59.2344C63.2171 58.9427 63.1143 58.5748 63.1143 58.1307V50.5341ZM70.8029 60.1591C70.0671 60.1591 69.4324 59.9967 68.8988 59.6719C68.3685 59.3438 67.9592 58.8864 67.6708 58.2997C67.3858 57.7098 67.2433 57.0237 67.2433 56.2415C67.2433 55.4593 67.3858 54.7699 67.6708 54.1733C67.9592 53.5734 68.3602 53.1061 68.8739 52.7713C69.391 52.4332 69.9942 52.2642 70.6836 52.2642C71.0813 52.2642 71.4741 52.3305 71.8619 52.4631C72.2496 52.5956 72.6026 52.8111 72.9208 53.1094C73.239 53.4044 73.4925 53.7955 73.6815 54.2827C73.8704 54.7699 73.9648 55.3698 73.9648 56.0824V56.5795H68.0785V55.5653H72.7717C72.7717 55.1345 72.6855 54.75 72.5131 54.4119C72.3441 54.0739 72.1022 53.8071 71.7873 53.6115C71.4757 53.416 71.1078 53.3182 70.6836 53.3182C70.2163 53.3182 69.8119 53.4342 69.4705 53.6662C69.1325 53.8949 68.8723 54.1932 68.69 54.5611C68.5077 54.929 68.4165 55.3234 68.4165 55.7443V56.4205C68.4165 56.9972 68.516 57.486 68.7148 57.8871C68.917 58.2848 69.1971 58.5881 69.555 58.7969C69.913 59.0024 70.329 59.1051 70.8029 59.1051C71.1112 59.1051 71.3896 59.062 71.6381 58.9759C71.89 58.8864 72.1071 58.7538 72.2894 58.5781C72.4717 58.3991 72.6126 58.1771 72.712 57.9119L73.8455 58.2301C73.7262 58.6146 73.5257 58.9527 73.244 59.2443C72.9622 59.5327 72.6142 59.758 72.1999 59.9205C71.7856 60.0795 71.32 60.1591 70.8029 60.1591ZM81.1587 54.0739L80.1048 54.3722C80.0385 54.1965 79.9407 54.0258 79.8114 53.8601C79.6855 53.6911 79.5131 53.5518 79.2944 53.4425C79.0756 53.3331 78.7956 53.2784 78.4542 53.2784C77.9869 53.2784 77.5974 53.3861 77.2859 53.6016C76.9776 53.8137 76.8235 54.0838 76.8235 54.4119C76.8235 54.7036 76.9296 54.9339 77.1417 55.103C77.3538 55.272 77.6853 55.4129 78.136 55.5256L79.2695 55.804C79.9523 55.9697 80.4611 56.2232 80.7958 56.5646C81.1306 56.9027 81.2979 57.3385 81.2979 57.8722C81.2979 58.3097 81.172 58.7008 80.9201 59.0455C80.6715 59.3902 80.3235 59.6619 79.8761 59.8608C79.4286 60.0597 78.9083 60.1591 78.315 60.1591C77.5361 60.1591 76.8915 59.9901 76.381 59.652C75.8706 59.3139 75.5475 58.8201 75.4116 58.1705L76.5252 57.892C76.6313 58.303 76.8318 58.6113 77.1268 58.8168C77.4251 59.0223 77.8145 59.125 78.2951 59.125C78.842 59.125 79.2762 59.009 79.5977 58.777C79.9225 58.5417 80.0849 58.2599 80.0849 57.9318C80.0849 57.6667 79.9921 57.4446 79.8065 57.2656C79.6209 57.0833 79.3358 56.9474 78.9513 56.858L77.6786 56.5597C76.9793 56.3939 76.4656 56.1371 76.1374 55.7891C75.8126 55.4377 75.6502 54.9986 75.6502 54.4716C75.6502 54.0407 75.7712 53.6596 76.0131 53.3281C76.2584 52.9967 76.5915 52.7365 77.0124 52.5476C77.4367 52.3587 77.9173 52.2642 78.4542 52.2642C79.2099 52.2642 79.8031 52.4299 80.234 52.7614C80.6682 53.0928 80.9764 53.5303 81.1587 54.0739ZM83.9192 60.0795C83.6739 60.0795 83.4635 59.9917 83.2878 59.8161C83.1122 59.6404 83.0243 59.4299 83.0243 59.1847C83.0243 58.9394 83.1122 58.7289 83.2878 58.5533C83.4635 58.3776 83.6739 58.2898 83.9192 58.2898C84.1645 58.2898 84.3749 58.3776 84.5506 58.5533C84.7263 58.7289 84.8141 58.9394 84.8141 59.1847C84.8141 59.3471 84.7727 59.4962 84.6898 59.6321C84.6103 59.768 84.5025 59.8774 84.3667 59.9602C84.2341 60.0398 84.0849 60.0795 83.9192 60.0795Z" fill="#828282"/>
<path d="M119.726 38V30.3636H121.153V31.6065H121.247C121.406 31.1856 121.666 30.8575 122.028 30.6222C122.389 30.3835 122.821 30.2642 123.325 30.2642C123.836 30.2642 124.263 30.3835 124.608 30.6222C124.956 30.8608 125.213 31.1889 125.379 31.6065H125.458C125.64 31.1989 125.93 30.8741 126.328 30.6321C126.726 30.3868 127.2 30.2642 127.75 30.2642C128.443 30.2642 129.008 30.4813 129.445 30.9155C129.886 31.3497 130.107 32.0043 130.107 32.8793V38H128.62V33.0185C128.62 32.5014 128.479 32.1269 128.197 31.8949C127.916 31.6629 127.579 31.5469 127.188 31.5469C126.704 31.5469 126.328 31.696 126.06 31.9943C125.791 32.2893 125.657 32.6688 125.657 33.1328V38H124.175V32.924C124.175 32.5097 124.046 32.1766 123.788 31.9247C123.529 31.6728 123.193 31.5469 122.778 31.5469C122.497 31.5469 122.237 31.6214 121.998 31.7706C121.763 31.9164 121.572 32.1203 121.426 32.3821C121.284 32.6439 121.212 32.9472 121.212 33.2919V38H119.726ZM135.39 38.1541C134.638 38.1541 133.99 37.9934 133.446 37.6719C132.906 37.3471 132.488 36.8913 132.193 36.3047C131.902 35.7147 131.756 35.0237 131.756 34.2315C131.756 33.4493 131.902 32.7599 132.193 32.1634C132.488 31.5668 132.899 31.1011 133.426 30.7663C133.957 30.4316 134.576 30.2642 135.286 30.2642C135.717 30.2642 136.134 30.3355 136.539 30.478C136.943 30.6205 137.306 30.8442 137.627 31.1491C137.949 31.4541 138.202 31.8501 138.388 32.3374C138.574 32.8213 138.666 33.4096 138.666 34.1023V34.6293H132.596V33.5156H137.21C137.21 33.1245 137.13 32.7782 136.971 32.4766C136.812 32.1716 136.588 31.9313 136.3 31.7557C136.015 31.58 135.68 31.4922 135.296 31.4922C134.878 31.4922 134.513 31.5949 134.202 31.8004C133.894 32.0026 133.655 32.2678 133.486 32.5959C133.32 32.9207 133.237 33.2737 133.237 33.6548V34.5249C133.237 35.0353 133.327 35.4695 133.506 35.8274C133.688 36.1854 133.942 36.4588 134.267 36.6477C134.591 36.8333 134.971 36.9261 135.405 36.9261C135.687 36.9261 135.944 36.8864 136.176 36.8068C136.408 36.724 136.608 36.6013 136.777 36.4389C136.946 36.2765 137.075 36.076 137.165 35.8374L138.572 36.0909C138.459 36.5052 138.257 36.8681 137.965 37.1797C137.677 37.4879 137.314 37.7282 136.877 37.9006C136.442 38.0696 135.947 38.1541 135.39 38.1541ZM141.802 27.8182V38H140.316V27.8182H141.802ZM145.289 33.4659V38H143.802V27.8182H145.269V31.6065H145.363C145.542 31.1955 145.816 30.8691 146.183 30.6271C146.551 30.3852 147.032 30.2642 147.625 30.2642C148.149 30.2642 148.606 30.3719 148.997 30.5874C149.392 30.8028 149.697 31.1243 149.912 31.5518C150.131 31.9761 150.24 32.5064 150.24 33.1428V38H148.754V33.3217C148.754 32.7616 148.61 32.3274 148.321 32.0192C148.033 31.7076 147.632 31.5518 147.118 31.5518C146.767 31.5518 146.452 31.6264 146.173 31.7756C145.898 31.9247 145.681 32.1435 145.522 32.4318C145.366 32.7169 145.289 33.0616 145.289 33.4659ZM155.441 38.1541C154.725 38.1541 154.1 37.9901 153.566 37.6619C153.033 37.3338 152.618 36.8748 152.323 36.2848C152.028 35.6948 151.881 35.0054 151.881 34.2166C151.881 33.4245 152.028 32.7318 152.323 32.1385C152.618 31.5452 153.033 31.0845 153.566 30.7564C154.1 30.4283 154.725 30.2642 155.441 30.2642C156.156 30.2642 156.781 30.4283 157.315 30.7564C157.848 31.0845 158.263 31.5452 158.558 32.1385C158.853 32.7318 159 33.4245 159 34.2166C159 35.0054 158.853 35.6948 158.558 36.2848C158.263 36.8748 157.848 37.3338 157.315 37.6619C156.781 37.9901 156.156 38.1541 155.441 38.1541ZM155.445 36.9062C155.91 36.9062 156.294 36.7836 156.599 36.5384C156.904 36.2931 157.129 35.9666 157.275 35.5589C157.424 35.1513 157.499 34.7022 157.499 34.2116C157.499 33.7244 157.424 33.277 157.275 32.8693C157.129 32.4583 156.904 32.1286 156.599 31.88C156.294 31.6314 155.91 31.5071 155.445 31.5071C154.978 31.5071 154.59 31.6314 154.282 31.88C153.977 32.1286 153.75 32.4583 153.601 32.8693C153.455 33.277 153.382 33.7244 153.382 34.2116C153.382 34.7022 153.455 35.1513 153.601 35.5589C153.75 35.9666 153.977 36.2931 154.282 36.5384C154.59 36.7836 154.978 36.9062 155.445 36.9062ZM160.659 38V30.3636H162.096V31.5767H162.176C162.315 31.1657 162.56 30.8426 162.912 30.6072C163.266 30.3686 163.667 30.2493 164.115 30.2493C164.208 30.2493 164.317 30.2526 164.443 30.2592C164.572 30.2659 164.673 30.2741 164.746 30.2841V31.706C164.686 31.6894 164.58 31.6712 164.428 31.6513C164.275 31.6281 164.123 31.6165 163.971 31.6165C163.619 31.6165 163.306 31.6911 163.031 31.8402C162.759 31.986 162.544 32.1899 162.385 32.4517C162.225 32.7102 162.146 33.0052 162.146 33.3366V38H160.659ZM169.05 38.1541C168.298 38.1541 167.65 37.9934 167.106 37.6719C166.566 37.3471 166.148 36.8913 165.854 36.3047C165.562 35.7147 165.416 35.0237 165.416 34.2315C165.416 33.4493 165.562 32.7599 165.854 32.1634C166.148 31.5668 166.559 31.1011 167.086 30.7663C167.617 30.4316 168.237 30.2642 168.946 30.2642C169.377 30.2642 169.794 30.3355 170.199 30.478C170.603 30.6205 170.966 30.8442 171.287 31.1491C171.609 31.4541 171.863 31.8501 172.048 32.3374C172.234 32.8213 172.327 33.4096 172.327 34.1023V34.6293H166.256V33.5156H170.87C170.87 33.1245 170.79 32.7782 170.631 32.4766C170.472 32.1716 170.248 31.9313 169.96 31.7557C169.675 31.58 169.34 31.4922 168.956 31.4922C168.538 31.4922 168.174 31.5949 167.862 31.8004C167.554 32.0026 167.315 32.2678 167.146 32.5959C166.98 32.9207 166.898 33.2737 166.898 33.6548V34.5249C166.898 35.0353 166.987 35.4695 167.166 35.8274C167.348 36.1854 167.602 36.4588 167.927 36.6477C168.251 36.8333 168.631 36.9261 169.065 36.9261C169.347 36.9261 169.604 36.8864 169.836 36.8068C170.068 36.724 170.268 36.6013 170.437 36.4389C170.606 36.2765 170.736 36.076 170.825 35.8374L172.232 36.0909C172.119 36.5052 171.917 36.8681 171.626 37.1797C171.337 37.4879 170.974 37.7282 170.537 37.9006C170.103 38.0696 169.607 38.1541 169.05 38.1541ZM179.698 32.228L178.351 32.4666C178.295 32.2943 178.205 32.1302 178.082 31.9744C177.963 31.8187 177.801 31.6911 177.595 31.5916C177.39 31.4922 177.133 31.4425 176.825 31.4425C176.404 31.4425 176.052 31.5369 175.771 31.7259C175.489 31.9115 175.348 32.1518 175.348 32.4467C175.348 32.7019 175.442 32.9074 175.631 33.0632C175.82 33.219 176.125 33.3466 176.546 33.446L177.759 33.7244C178.462 33.8868 178.986 34.1371 179.33 34.4751C179.675 34.8132 179.847 35.2524 179.847 35.7926C179.847 36.25 179.715 36.6577 179.45 37.0156C179.188 37.3703 178.821 37.6487 178.351 37.8509C177.884 38.053 177.342 38.1541 176.725 38.1541C175.87 38.1541 175.172 37.9718 174.632 37.6072C174.092 37.2393 173.76 36.7173 173.638 36.0412L175.075 35.8224C175.164 36.197 175.348 36.4804 175.626 36.6726C175.905 36.8615 176.268 36.956 176.715 36.956C177.202 36.956 177.592 36.8549 177.884 36.6527C178.175 36.4472 178.321 36.197 178.321 35.902C178.321 35.6634 178.232 35.4628 178.053 35.3004C177.877 35.138 177.607 35.0154 177.242 34.9325L175.95 34.6491C175.237 34.4867 174.71 34.2282 174.369 33.8736C174.031 33.5189 173.862 33.0698 173.862 32.5263C173.862 32.0755 173.987 31.6811 174.239 31.343C174.491 31.005 174.839 30.7415 175.283 30.5526C175.728 30.3603 176.236 30.2642 176.81 30.2642C177.635 30.2642 178.285 30.4432 178.759 30.8011C179.232 31.1558 179.546 31.6314 179.698 32.228Z" fill="#333333"/>
</svg>
